<?xml version="1.0" encoding="UTF-8"?>
<svg id="Layer_2" data-name="Layer 2" xmlns="http://www.w3.org/2000/svg" viewBox="0 0 1716.04 499.37">
  <defs>
    <style>
      .cls-1, .cls-2 {
        fill: #fca356;
      }

      .cls-1, .cls-3 {
        stroke-width: 0px;
      }

      .cls-2 {
        font-family: Helvetica, Helvetica;
        font-size: 58.83px;
      }

      .cls-3 {
        fill: #682c0e;
      }
    </style>
  </defs>
  <g id="Layer_1-2" data-name="Layer 1">
    <g>
      <path class="cls-3" d="m420.67,148.95c-42.62,48.61-70.09,106.37-100.39,162.73-2.47,4.58-6.34,8.45-8.45,13.03-5.64,11.98-14.09,20.43-28.53,17.26-16.2-3.52-33.46-9.86-35.93-27.47-3.17-23.6-1.06-47.9-1.06-71.86,0-1.41-.35-3.17-4.23-5.99-11.62,25.01-25.01,49.31-33.81,75.38-11.62,33.81-19.02,68.69-28.88,103.2-3.52,12.68-9.16,21.84-26.77,19.37-32.05-4.93-38.39-8.81-47.55-41.21-17.61-63.4-14.09-127.16-1.41-190.91,3.87-19.73,8.81-39.1,11.62-59.53-30.29,45.09-71.5,84.54-70.09,144.77C21.24,290.55,1.51,271.53.1,244.05c-1.41-32.41,11.98-59.88,32.41-82.42,33.81-38.04,70.09-73.62,106.02-109.54,3.52-3.52,14.44-3.87,19.37-1.06,16.2,8.1,31.7,17.96,46.85,27.83,9.16,5.99,12.68,14.09,8.1,25.01-21.13,47.9-34.52,97.92-36.63,150.4-.35,4.93-2.82,9.86-3.17,15.15-.71,4.93,0,10.21,0,19.37,14.44-26.42,27.12-48.96,39.8-71.5,4.23-7.4,8.81-14.79,14.44-21.13,9.86-10.92,19.73-24.3,38.04-16.55,20.78,8.81,24.3,16.91,21.13,41.21-3.17,23.95-4.23,47.9-6.69,77.49,5.99-8.1,9.86-11.98,12.68-16.91,27.47-51.78,52.13-105.32,82.42-154.98,17.26-27.83,43.68-49.66,66.57-73.97,2.82-2.82,8.1-4.58,12.33-4.93,17.61-1.41,58.12,23.25,59.53,39.8,1.41,14.44-3.17,30.64-7.75,44.73-18.67,57.06-38.75,113.77-58.47,170.83-11.62,33.81-19.02,68.69-16.56,104.97.35,5.64,2.47,11.27,3.52,16.55,2.11.35,4.58,1.06,6.69,1.41,20.08-35.93,39.8-72.21,59.88-108.14-18.32-19.72-15.15-43.68-13.74-66.22,2.11-32.41,9.86-63.4,35.22-86.65,8.45-7.75,17.26-15.15,30.29-8.81,2.11,1.06,5.64-.35,8.1-1.41,34.17-11.98,79.96,21.13,81.01,58.82.35,11.62,0,23.6,0,35.22,13.74.35,20.08-3.17,21.84-19.02,3.52-27.12,17.61-50.72,39.1-68.69,3.52-2.82,9.51-3.52,14.09-4.23,6.69-1.06,14.44,0,20.43-2.82,17.96-8.45,33.46-1.76,47.9,7.4,25.71,16.2,44.38,36.98,39.8,70.8-1.06,8.1,0,16.2,0,30.64,10.21-8.1,18.32-13.03,24.66-19.37,13.74-13.38,29.23-19.37,48.26-15.15,5.64,1.06,10.92,1.76,13.38,2.47,7.75-36.63,12.68-72.56,23.6-106.37,7.4-23.25,22.9-44.03,35.58-65.52,5.99-9.86,15.5-11.98,27.12-11.62,33.46,1.06,50.02,21.49,46.14,53.89-5.99,48.26-23.25,91.58-52.48,129.62-15.5,20.08-16.56,42.97-17.61,65.16-1.76,36.98,1.06,74.32,3.17,111.66.35,9.16,5.99,17.96,10.21,29.24,27.12-27.12,29.23-62.7,43.68-92.28,20.43,3.87,19.02,20.43,15.85,33.81-4.58,19.72-12.33,39.1-20.43,57.41-3.17,6.69-10.92,13.38-17.96,16.2-42.27,15.5-76.79-3.87-87.71-47.9-1.06-4.93-2.82-9.51-4.58-14.44-5.64,14.79-10.92,29.24-16.56,43.32-6.69,16.91-20.08,24.66-37.69,22.54-19.02-2.47-36.98-7.04-43.68-29.59-13.74-44.73-7.4-88.76,5.28-132.09.35-.7.35-1.76-1.06-4.23-15.15,48.96-38.75,91.93-97.92,75.73-41.92-11.62-69.39-42.62-64.46-91.93-20.08,1.76-26.77,15.15-32.05,31.35-10.21,32.41-36.28,51.43-67.98,48.61-10.57-1.06-20.43-5.64-33.11-9.51-2.11,3.87-4.93,8.81-7.75,14.09-14.44,27.47-27.47,56.01-44.03,82.42-7.75,11.98-21.84,20.78-39.1,12.33-15.15-7.4-32.76-11.62-44.73-22.54-9.16-8.45-14.44-24.3-16.2-37.69-7.4-61.64,10.92-119.41,28.18-177.53,5.99-20.08,13.74-39.45,21.84-60.94,1.06-3.52,1.41-5.64,1.41-7.4-2.11.35-3.87,1.41-5.28,2.47m368.44,44.73c-6.34-6.69-12.33-18.67-19.37-19.02-6.69-.7-17.26,8.81-20.78,16.55-12.33,25.36-24.66,51.07-33.11,77.84-4.58,15.15-3.17,33.11,0,48.61,2.11,9.86,10.57,20.43,19.37,26.42,3.17,2.47,16.56-5.64,22.19-11.62,8.45-8.81,14.09-20.43,21.13-30.64,5.28-7.4,3.52-11.27-4.23-16.55-8.81-5.99-20.43-11.98-15.85-28.18,10.92.7,21.84,1.41,34.87,2.11-.7-20.43-2.11-41.56-4.23-65.52m-232.47,16.91c-5.64,14.79-12.68,29.24-16.2,44.38-4.93,20.43-7.75,41.56,3.17,61.64,9.51,17.61,21.84,20.08,34.87,4.58,9.86-11.98,16.91-26.42,22.54-35.22-9.51-12.68-22.9-23.25-21.84-31.35,2.82-19.02,19.73,3.52,31-5.64,1.06-18.67,1.06-38.04-2.47-56.71-1.41-7.4-9.86-16.2-16.91-18.32-4.93-1.76-14.44,5.28-19.37,10.57-5.28,6.69-8.8,15.85-14.79,26.07m317.01,106.02c-6.69,37.34-20.43,73.97-13.03,113.77,26.77-17.26,58.82-149.7,39.45-176.12-9.16,21.84-16.91,40.86-26.42,62.35m144.42-214.86c-1.41-.35-3.52-1.06-3.52-1.06-7.04,19.37-14.44,39.1-20.78,58.82-3.17,9.16-5.28,19.02-7.75,28.53,1.41.35,3.17.7,4.58,1.41,9.16-28.53,17.96-56.71,27.48-87.71Z"/>
      <path class="cls-1" d="m1523.86,178.19c17.96-11.62,34.17-23.6,58.47-13.03,27.83,12.33,45.09,28.18,38.39,60.94-1.06,5.64,0,11.62,0,18.67,8.1,1.76,15.85,5.28,23.25,4.93,18.32-1.06,20.08,9.16,17.96,24.66-4.93,0-9.51.7-14.09,0-26.42-5.64-28.18-3.87-37.34,19.73-6.34,16.2-13.03,32.76-23.25,46.14-22.54,30.64-42.27,42.97-96.51,26.42-4.58,38.39-15.85,75.73-8.1,114.83,1.06,4.93-1.06,15.15-3.17,15.85-8.1,2.11-17.61,3.17-25.01.35-20.08-7.75-21.84-27.83-23.6-45.09-3.17-28.88-3.87-58.12-5.64-86.65-24.66-3.87-53.54,3.17-67.28-19.72-8.1,5.99-17.26,15.5-28.18,20.43-11.27,4.58-25.01,8.1-36.63,5.99-40.86-7.4-56.36-37.69-60.94-76.08-12.68,2.82-24.3,5.28-36.98,7.75,2.82,22.19,5.28,43.68,8.1,65.16,4.58,36.28,3.87,72.21-9.16,106.37-9.51,25.01-42.62,28.18-66.22,8.81-21.84-17.96-30.29-42.62-34.52-68.33-13.03-79.25-14.79-158.5,12.68-235.64,4.23-11.98,9.16-23.95,15.5-34.87,11.27-20.08,31.35-27.83,53.54-21.84,22.9,5.99,32.41,20.08,33.81,45.79,2.11,36.98-3.52,71.86-25.01,103.2.71,1.76,1.41,3.52,2.11,5.64,8.45-.7,17.61.7,25.71-2.11,11.27-3.87,19.37-11.62,18.67-26.07-2.47-62.7,3.17-124.34,24.66-183.51,7.04-19.37,17.61-37.69,29.59-54.6,7.04-10.21,19.73-15.15,34.17-10.57,33.81,10.92,48.26,29.59,48.96,65.16,0,3.87.35,8.1.71,14.09,7.4,0,14.44-.35,21.13,0,17.96,1.06,25.36,11.27,21.84,28.88-2.47,11.27-4.23,22.9-4.93,34.17-.71,12.68-4.23,20.43-19.02,17.26-20.43-4.23-28.18-12.68-25.71-27.47,1.41-9.51,1.76-19.37,1.41-29.24-14.09,39.1-36.98,71.86-65.87,101.09-1.41,1.41-3.52,3.87-3.52,5.64-3.52,38.75-6.34,77.49,3.52,115.88,1.76,6.69,7.4,12.33,11.62,19.37,27.47-19.02,36.28-46.14,40.15-74.32,3.52-24.3,2.82-48.96,3.87-73.26.71-16.55,9.16-27.12,21.49-26.07,22.9,2.11,32.05,12.33,31.7,29.94-1.06,40.51-.35,81.37-.35,121.87,0,2.82,2.47,5.99,8.81,9.86,6.34-19.37,14.44-38.39,19.02-58.12,9.16-39.8,15.5-80.31,25.36-120.11,6.34-26.07,17.26-28.88,40.86-15.85,3.87,2.11,7.4,5.99,11.98,7.04,14.09,4.23,15.5,13.38,9.16,27.12-1.06,3.17-1.41,4.93-1.41,6.34,1.05-.35,2.82-1.76,4.22-2.82m-371.96,225.43c3.87,21.49,8.1,42.97,11.98,64.46,26.77-33.46,16.91-142.65-11.98-174.36v109.9m363.15-150.76c-1.41,5.28-2.47,10.92-3.52,15.15,17.96-4.93,35.22-11.27,53.19-13.74,13.38-1.76,22.54-3.52,20.78-20.08-1.06-10.57.71-21.49-.71-32.05-.71-6.34-4.23-15.15-8.81-17.26-4.23-1.76-14.44,2.11-17.61,6.34-14.79,19.37-28.18,39.8-43.32,61.64m20.43,84.18c18.32-13.38,33.11-28.88,35.58-53.89-38.75,4.58-67.28,33.11-65.52,65.52,9.51-3.87,18.67-7.04,29.94-11.62m-216.62-258.89c-6.69,23.6-13.74,47.2-20.43,70.8,28.88-22.9,44.38-72.56,32.76-99.68-3.87,9.86-7.04,18.32-12.33,28.88m-135.61,103.91c-1.76-6.69-3.17-13.74-4.93-20.43-1.06-.35-2.11-.35-3.17-.7-7.04,28.88-14.09,57.41-21.49,86.3,2.82.7,5.64,1.41,8.1,2.11,7.4-21.49,14.44-42.97,21.49-67.28Z"/>
    </g>
    <text class="cls-2" transform="translate(1631.09 224.65)"><tspan x="0" y="0">TM</tspan></text>
  </g>
</svg>